<svg xmlns="http://www.w3.org/2000/svg" width="100" height="99.314" viewBox="0 0 100 99.314"><path d="M1550.27,886.218a15.918,15.918,0,1,0,4.652,11.246A15.8,15.8,0,0,0,1550.27,886.218Zm-7.171,15.32a5.759,5.759,0,1,1,0-8.149A5.723,5.723,0,0,1,1543.1,901.538Z" transform="translate(-1454.922 -881.567)" fill="#261738"/><path d="M1448.8,970.553a36.7,36.7,0,0,1-46.767,3.438l47.431-47.431a17.05,17.05,0,0,1-8.028-8.269l-47.61,47.609a36.7,36.7,0,0,1,3.4-47.387l3.451,3.452a95.878,95.878,0,0,1,4.687-19.118L1386,907.3l3.067,3.067a48.071,48.071,0,0,0-8.628,55.725c1.6,3.134,3.721,10.976.335,18.232l-1.727,3.7,3.918-1.152c8.247-2.427,15.6-1.147,19.4.685a48.235,48.235,0,0,0,54.587-8.847l3.183,3.183,4.449-19.354a95.875,95.875,0,0,1-19.118,4.687Z" transform="translate(-1375.163 -893.038)" fill="#261738"/></svg>