<?xml version="1.0" encoding="UTF-8"?><!DOCTYPE svg PUBLIC "-//W3C//DTD SVG 1.1//EN" "http://www.w3.org/Graphics/SVG/1.1/DTD/svg11.dtd"><svg xmlns="http://www.w3.org/2000/svg"><defs><style>.cls-1{fill:#ef6e7e;fill-rule:evenodd}</style><style>.cls-1{fill:#8e8e8e;fill-rule:evenodd}</style><style>.cls-1{fill:#c5de9e;fill-rule:evenodd}</style><style>.cls-1{fill:#fff;fill-opacity:.5;fill-rule:evenodd}</style><style>.cls-1{fill:#fff;fill-rule:evenodd}</style></defs><symbol id="icon-build-error" viewBox="0 0 30.062 30.062"><path d="M25.655 4.4c-5.87-5.87-15.387-5.87-21.256 0-5.87 5.87-5.87 15.388 0 21.257 5.868 5.87 15.386 5.87 21.255 0 5.87-5.87 5.87-15.387 0-21.257zm-3.002 14.162a8.233 8.233 0 0 0 .14-7.208l3.04-3.04a12.762 12.762 0 0 1 0 13.43l-3.18-3.182zm-11.285.222a5.63 5.63 0 0 1 0-7.954 5.632 5.632 0 0 1 7.954 0 5.63 5.63 0 0 1 .063 7.887l-.13.13a5.63 5.63 0 0 1-7.887-.063zM21.743 4.222l-3.077 3.075a8.226 8.226 0 0 0-7.076.202L8.313 4.22a12.762 12.762 0 0 1 13.43 0zM4.22 8.312l3.48 3.48a8.23 8.23 0 0 0 .136 6.338L4.22 21.743a12.762 12.762 0 0 1 0-13.43zm4.093 17.523l3.578-3.578a8.237 8.237 0 0 0 6.47.194l3.383 3.385a12.762 12.762 0 0 1-13.43 0z" class="cls-1"/></symbol><symbol id="icon-build-running" viewBox="0 0 30 30"><path d="M29.36 19.403L30 15.77l-3.608-.636a11.436 11.436 0 0 0-.682-4.19l3.12-1.8-1.846-3.194-3.082 1.778a11.508 11.508 0 0 0-2.405-2.304L22.97 2.27 19.624.71l-1.45 3.11a11.39 11.39 0 0 0-1.286-.312 11.535 11.535 0 0 0-2.075-.165L14.225 0l-3.633.64.585 3.31a11.53 11.53 0 0 0-3.04 1.577L5.764 3.155l-2.61 2.61L5.543 8.15a11.458 11.458 0 0 0-1.56 3.033l-3.342-.59L0 14.226l3.378.595a11.42 11.42 0 0 0 .82 4.285l-3.033 1.75L3.01 24.05l3.097-1.787a11.544 11.544 0 0 0 2.443 2.2L7.025 27.73l3.343 1.56 1.543-3.31c.32.086.647.16.977.22a11.46 11.46 0 0 0 2.242.167L15.767 30l3.635-.64-.647-3.665a11.604 11.604 0 0 0 2.842-1.49l2.638 2.64 2.61-2.61-2.637-2.635c.62-.86 1.135-1.81 1.504-2.84l3.645.643zm-9.07-3.597a5.485 5.485 0 0 1-6.355 4.45A5.485 5.485 0 0 1 15.84 9.45a5.485 5.485 0 0 1 4.45 6.356z" class="cls-1"/></symbol><symbol id="icon-build-success" viewBox="0 0 30 30"><path d="M0 13.125v3.75h2.812v-3.75H0zM16.875 0h-3.75v2.81h3.75V0zm10.313 13.125v3.75H30v-3.75h-2.812zM15 2.81C8.27 2.81 2.812 8.27 2.812 15c0 6.73 5.458 12.186 12.188 12.186 6.732 0 12.188-5.456 12.188-12.186 0-6.732-5.456-12.19-12.188-12.19zm0 21.565c-5.178 0-9.375-4.2-9.375-9.375A9.375 9.375 0 0 1 15 5.625 9.375 9.375 0 0 1 24.375 15c0 5.176-4.197 9.375-9.375 9.375zM13.125 30h3.75v-2.814h-3.75V30zM15 8.436a6.563 6.563 0 1 0 0 13.123 6.563 6.563 0 0 0 0-13.123z" class="cls-1"/></symbol><symbol id="logo-source" viewBox="0 0 107.156 24.219"><path d="M100.444 6.545c-1.383 0-2.426.217-3.13.65-.702.434-1.054 1.032-1.054 1.793 0 .516.132.956.396 1.32.263.362.688.708 1.274 1.036.586.328 1.71.803 3.375 1.424 2.285.832 3.83 1.67 4.632 2.513.803.845 1.204 1.906 1.204 3.183 0 1.793-.667 3.176-2.003 4.148-1.336.974-3.21 1.46-5.625 1.46-2.555 0-4.547-.404-5.976-1.213V20.15c.925.47 1.918.838 2.98 1.108 1.06.27 2.082.404 3.067.404 1.523 0 2.695-.243 3.515-.73.82-.485 1.23-1.227 1.23-2.223 0-.75-.325-1.392-.975-1.926-.65-.533-1.92-1.163-3.806-1.89-1.793-.667-3.067-1.25-3.823-1.748-.756-.498-1.318-1.064-1.687-1.697-.37-.634-.554-1.39-.554-2.268 0-1.57.638-2.81 1.916-3.718 1.276-.908 3.028-1.362 5.255-1.362 2.074 0 4.1.42 6.082 1.265L105.7 7.74c-1.934-.796-3.686-1.195-5.256-1.195zm-14.748 14.59h-.158c-.598.95-1.427 1.676-2.488 2.18-1.06.503-2.27.755-3.63.755-2.344 0-4.098-.556-5.264-1.67-1.166-1.113-1.75-2.894-1.75-5.343V4.453h2.954V16.95c0 1.572.357 2.743 1.072 3.517.715.773 1.834 1.16 3.358 1.16 2.015 0 3.49-.55 4.42-1.652.932-1.102 1.398-2.9 1.398-5.397V4.453h2.918V23.72h-2.408l-.422-2.585zM67.37 23.92c-.615.1-1.168.15-1.66.15-3.727 0-5.59-1.962-5.59-5.888V6.722h-2.76V5.314l2.76-1.213 1.23-4.114h1.688v4.465h5.59V6.72h-5.59v11.34c0 1.16.275 2.05.826 2.67.55.622 1.306.932 2.267.932.517 0 1.015-.038 1.495-.114.48-.076.862-.155 1.143-.237v2.233c-.316.152-.782.278-1.397.378zm-16.215-2.943h-.14c-.962 1.207-1.92 2.024-2.875 2.452-.955.426-2.147.64-3.577.64-1.91 0-3.407-.492-4.49-1.476-1.085-.985-1.627-2.385-1.627-4.2 0-3.892 3.11-5.93 9.334-6.12l3.27-.104v-1.195c0-1.512-.326-2.628-.976-3.35-.65-.72-1.69-1.08-3.12-1.08-1.606 0-3.422.492-5.45 1.477l-.896-2.233c.95-.516 1.99-.92 3.12-1.214 1.13-.293 2.265-.44 3.4-.44 2.298 0 4 .51 5.108 1.53 1.107 1.02 1.66 2.654 1.66 4.904v13.15h-2.16l-.58-2.743zm-.176-6.733l-2.92.123c-2.32.082-3.992.443-5.018 1.08-1.025.64-1.538 1.633-1.538 2.98 0 1.055.32 1.858.958 2.41.64.55 1.532.825 2.68.825 1.817 0 3.244-.498 4.28-1.494 1.038-.996 1.557-2.39 1.557-4.184v-1.74zM34.64 23.92c-.615.1-1.17.15-1.66.15-3.728 0-5.59-1.962-5.59-5.888V6.722h-2.76V5.314l2.76-1.213 1.23-4.114h1.687v4.465h5.59V6.72h-5.59v11.34c0 1.16.275 2.05.826 2.67.55.622 1.307.932 2.268.932.516 0 1.014-.038 1.495-.114.48-.076.86-.155 1.143-.237v2.233c-.317.152-.783.278-1.398.378zM13.22 11.345c.587.328 1.712.803 3.376 1.424 2.285.832 3.83 1.67 4.632 2.513.803.845 1.204 1.906 1.204 3.183 0 1.793-.668 3.176-2.004 4.148-1.336.974-3.21 1.46-5.625 1.46-2.555 0-4.547-.404-5.976-1.213V20.15c.925.47 1.918.838 2.98 1.108 1.06.27 2.082.404 3.067.404 1.523 0 2.695-.243 3.515-.73.82-.485 1.23-1.227 1.23-2.223 0-.75-.326-1.392-.976-1.926-.65-.533-1.92-1.163-3.806-1.89-1.793-.667-3.067-1.25-3.823-1.748-.756-.498-1.318-1.064-1.687-1.697-.37-.634-.554-1.39-.554-2.268 0-1.57.638-2.81 1.916-3.718 1.277-.908 3.03-1.362 5.256-1.362 2.074 0 4.1.42 6.082 1.265L20.99 7.74c-1.933-.796-3.685-1.195-5.255-1.195-1.383 0-2.426.217-3.13.65-.702.434-1.054 1.032-1.054 1.793 0 .516.133.956.397 1.32.263.362.688.708 1.274 1.036zM2.078 24.23c-.598 0-1.093-.186-1.486-.555-.39-.37-.588-.976-.588-1.82 0-.784.18-1.38.537-1.784.356-.403.87-.605 1.537-.605.68 0 1.21.202 1.59.606.38.406.572 1 .572 1.786 0 .76-.195 1.347-.58 1.757-.388.41-.915.616-1.583.616zm0-15.523c-.598 0-1.093-.184-1.486-.554-.39-.37-.588-.975-.588-1.82 0-1.58.692-2.372 2.075-2.372 1.44 0 2.162.792 2.162 2.374 0 .762-.195 1.348-.58 1.758-.388.41-.915.615-1.583.615z" class="cls-1"/></symbol><symbol id="logo" viewBox="0 0 210.781 65.062"><path d="M206.783 30.5c-.222 1.948-.408 3.62-.558 5.017-.15 1.396-.27 2.585-.355 3.566-.086.98-.15 1.794-.193 2.438-.043.646-.065 1.19-.065 1.634 0 .53.068.878.204 1.042.136.165.283.247.44.247.33 0 .674-.254 1.032-.762s.723-1.42 1.096-2.74l2.385.71a17.55 17.55 0 0 1-.775 2.33 8.97 8.97 0 0 1-1.3 2.225 6.76 6.76 0 0 1-1.955 1.665c-.766.437-1.68.655-2.74.655a5.05 5.05 0 0 1-1.514-.225 3.304 3.304 0 0 1-1.267-.73c-.366-.337-.657-.778-.87-1.322-.216-.544-.324-1.203-.324-1.977 0-1.33.054-2.813.162-4.446.107-1.633.25-3.35.43-5.156.178-1.805.38-3.66.6-5.565.223-1.904.635-5.163 1.236-9.775l-3.094.13.172-3.31a23.48 23.48 0 0 0 2.664-.13 16.08 16.08 0 0 0 1.945-.328 7.58 7.58 0 0 0 1.31-.426c.338-.153.585-.302.742-.448h2.385c-.387 3.352-.727 6.317-1.02 8.895l-.774 6.79zm-21.108 12.75c.372.467.795.79 1.267.968.473.18.946.268 1.418.268.358 0 .785-.05 1.28-.15.493-.1 1-.3 1.524-.602.523-.3 1.038-.73 1.547-1.29.51-.557.964-1.295 1.365-2.212l2.492 1.203c-.63 1.447-1.314 2.63-2.05 3.545-.74.917-1.51 1.637-2.31 2.16a7.832 7.832 0 0 1-2.472 1.085c-.845.2-1.697.3-2.556.3-1.348.014-2.562-.172-3.643-.558a7.12 7.12 0 0 1-2.77-1.773c-.768-.795-1.355-1.797-1.763-3.008-.408-1.21-.612-2.63-.612-4.264 0-.945.093-1.934.28-2.965.185-1.03.475-2.04.87-3.03.393-.988.89-1.93 1.492-2.825a10.82 10.82 0 0 1 2.138-2.352 10.082 10.082 0 0 1 2.814-1.61c1.053-.402 2.224-.603 3.513-.603.973 0 1.864.107 2.674.322.81.214 1.504.547 2.084.998a4.567 4.567 0 0 1 1.353 1.73c.324.702.485 1.533.485 2.492 0 .802-.17 1.518-.505 2.148a5.662 5.662 0 0 1-1.375 1.676 9.475 9.475 0 0 1-2.02 1.28c-.766.364-1.582.68-2.45.944-.866.265-1.757.487-2.674.666-.915.18-1.803.333-2.663.462 0 1.246.118 2.274.355 3.083.236.808.54 1.446.913 1.91zm1.9-8.657c.825-.337 1.487-.72 1.988-1.15.502-.43.863-.898 1.085-1.407a3.665 3.665 0 0 0 .312-1.58 2.298 2.298 0 0 0-.204-.912 1.97 1.97 0 0 0-.462-.623 1.83 1.83 0 0 0-.623-.364c-.228-.08-.45-.12-.665-.12-.745 0-1.38.213-1.9.635-.524.424-.96.968-1.312 1.634a9.33 9.33 0 0 0-.816 2.245c-.194.83-.333 1.653-.42 2.47 1.19-.215 2.195-.49 3.02-.827zm-13.17 5.532a19.437 19.437 0 0 1-1.707 3.18 13.558 13.558 0 0 1-2.32 2.685 10.884 10.884 0 0 1-2.89 1.848c-1.052.458-2.195.687-3.426.687-1.003 0-1.856-.157-2.557-.472a4.39 4.39 0 0 1-1.73-1.365c-.45-.594-.78-1.313-.988-2.16-.208-.844-.31-1.796-.31-2.856 0-.5.016-1.074.052-1.72.035-.643.082-1.31.14-1.997l.17-2.084c.058-.7.115-1.37.173-2.008.057-.637.103-1.22.14-1.75.035-.53.053-.975.053-1.333 0-.488-.08-.803-.236-.946-.158-.143-.315-.215-.473-.215-.33 0-.673.254-1.03.762-.36.508-.725 1.42-1.097 2.74l-2.385-.71c.13-.63.362-1.343.7-2.138a9.782 9.782 0 0 1 1.33-2.245 7.598 7.598 0 0 1 1.988-1.773c.773-.48 1.654-.72 2.643-.72.844 0 1.54.136 2.083.41.544.272.977.644 1.3 1.117a4.37 4.37 0 0 1 .665 1.645c.122.623.183 1.28.183 1.968 0 .946-.043 1.982-.13 3.107a429.44 429.44 0 0 1-.268 3.345 955.752 955.752 0 0 1-.268 3.13c-.086.98-.13 1.803-.13 2.462 0 .244.02.51.055.796.035.286.107.56.215.817.107.258.264.47.472.634.208.165.484.247.827.247.53-.014 1.068-.158 1.613-.43a6.543 6.543 0 0 0 1.59-1.152c.515-.495 1-1.082 1.45-1.764.45-.68.845-1.437 1.18-2.27a15.094 15.094 0 0 0 1.086-5.658 6.45 6.45 0 0 0-.322-1.936c-.1-.3-.22-.58-.355-.84a2.602 2.602 0 0 0-.44-.623 4.44 4.44 0 0 1-.87.548 2.58 2.58 0 0 1-1.15.248c-.287 0-.59-.05-.913-.15a2.52 2.52 0 0 1-.88-.484 2.602 2.602 0 0 1-.657-.85c-.17-.342-.257-.75-.257-1.223 0-.3.057-.633.17-.998.116-.365.302-.702.56-1.01a3.047 3.047 0 0 1 1.03-.773c.43-.21.96-.313 1.59-.313.946 0 1.774.212 2.483.634.708.423 1.305 1 1.793 1.73.486.73.852 1.583 1.095 2.557.244.974.365 2.005.365 3.094a15.87 15.87 0 0 1-.354 3.213 18.034 18.034 0 0 1-1.054 3.362zm-22.257 5.908a6.96 6.96 0 0 1-1.804 1.773c-.71.48-1.544.72-2.503.72-.472 0-.923-.062-1.353-.183a2.67 2.67 0 0 1-1.128-.645c-.323-.308-.58-.72-.774-1.235-.193-.516-.29-1.16-.29-1.934 0-.387.014-.82.043-1.3.027-.48.07-.906.128-1.28h-.043c-.545 1.276-1.11 2.336-1.697 3.18-.588.846-1.2 1.52-1.837 2.02-.637.502-1.285.856-1.944 1.064-.66.207-1.325.31-1.998.31-.802 0-1.557-.16-2.266-.482-.71-.322-1.325-.816-1.848-1.482-.523-.666-.938-1.504-1.246-2.514-.308-1.01-.462-2.195-.462-3.556 0-2.005.293-3.91.88-5.715.588-1.804 1.447-3.39 2.58-4.758a12.467 12.467 0 0 1 4.167-3.266c1.647-.808 3.523-1.213 5.63-1.213.83 0 1.79.083 2.878.247 1.09.165 2.242.398 3.46.698-.1.73-.223 1.583-.366 2.557-.143.973-.29 1.994-.44 3.06a329.72 329.72 0 0 0-.44 3.245 197.324 197.324 0 0 0-.387 3.126c-.115.99-.208 1.89-.28 2.708a23.527 23.527 0 0 0-.107 1.976c0 .53.068.878.204 1.042.136.165.283.247.44.247a.97.97 0 0 0 .527-.172c.18-.113.366-.306.56-.58.193-.27.386-.632.58-1.084.193-.45.383-1.006.57-1.665l2.384.71c-.13.63-.34 1.343-.634 2.138a9.722 9.722 0 0 1-1.182 2.245zm-8.346-17.488a6.693 6.693 0 0 0-1.053-.086c-.832 0-1.59.26-2.278.783s-1.28 1.3-1.773 2.33c-.495 1.032-.882 2.314-1.16 3.847-.28 1.533-.42 3.308-.42 5.328 0 1.203.15 2.148.45 2.836.302.687.71 1.03 1.226 1.03.544 0 1.053-.24 1.525-.72.474-.478.914-1.123 1.323-1.932.408-.81.78-1.747 1.117-2.815a34.27 34.27 0 0 0 .87-3.373c.243-1.18.447-2.377.612-3.588.165-1.21.276-2.366.333-3.47a4.656 4.656 0 0 0-.773-.17zm-13.815 2.417c-.258.28-.57.505-.934.677-.365.17-.77.256-1.214.256-.33 0-.642-.053-.936-.16a2.337 2.337 0 0 1-.773-.457 2.175 2.175 0 0 1-.526-.714 2.02 2.02 0 0 1-.17-.947c-.417-.044-.84.157-1.27.6-.43.444-.844 1.055-1.245 1.835-.402.78-.782 1.69-1.14 2.736a33.26 33.26 0 0 0-.934 3.284 35.383 35.383 0 0 0-.623 3.466 25.856 25.856 0 0 0-.226 3.315 39.202 39.202 0 0 0 .043 1.63l.043.87c.014.28.03.505.043.676h-5.758l-.075-.76a9.268 9.268 0 0 1-.054-.947v-.397c0-.63.04-1.393.117-2.288.08-.895.176-1.844.29-2.847.115-1 .244-2.02.387-3.05a194.192 194.192 0 0 0 .677-5.36c.08-.71.12-1.243.12-1.6 0-.488-.065-.803-.194-.946-.13-.143-.273-.215-.43-.215-.33 0-.673.254-1.03.762-.36.508-.725 1.42-1.097 2.74l-2.386-.71c.13-.63.326-1.343.59-2.138a9.437 9.437 0 0 1 1.097-2.245 6.58 6.58 0 0 1 1.73-1.773c.688-.48 1.51-.72 2.47-.72.474 0 .932.06 1.376.183.444.122.834.336 1.17.644.337.308.61.72.817 1.236.208.515.312 1.16.312 1.933 0 .473-.032 1.04-.097 1.697-.064.66-.168 1.404-.31 2.235h.042c.587-1.676 1.188-3.03 1.804-4.06.616-1.032 1.236-1.834 1.86-2.407.622-.573 1.234-.96 1.836-1.16.6-.2 1.174-.3 1.718-.3.545 0 1.042.078 1.494.235.45.158.837.384 1.16.677.322.294.572.648.752 1.064.18.415.268.88.268 1.396a3.062 3.062 0 0 1-.795 2.052zM108.3 46.032a6.963 6.963 0 0 1-1.806 1.774c-.71.48-1.543.72-2.503.72-.47 0-.923-.062-1.352-.183a2.657 2.657 0 0 1-1.128-.645c-.323-.308-.58-.72-.774-1.235-.193-.516-.29-1.16-.29-1.934 0-.387.014-.82.043-1.3.028-.48.07-.906.128-1.28h-.043c-.544 1.276-1.11 2.336-1.697 3.18-.588.846-1.2 1.52-1.837 2.02-.636.502-1.285.856-1.943 1.064-.66.207-1.325.31-1.998.31-.804 0-1.56-.16-2.268-.482-.71-.322-1.325-.816-1.848-1.482-.523-.666-.938-1.504-1.246-2.514-.308-1.01-.462-2.195-.462-3.556 0-2.005.294-3.91.88-5.715.588-1.804 1.448-3.39 2.58-4.758a12.477 12.477 0 0 1 4.167-3.266c1.647-.808 3.524-1.213 5.63-1.213.83 0 1.79.083 2.878.247 1.09.165 2.243.398 3.46.698-.1.73-.222 1.583-.365 2.557-.143.973-.29 1.994-.44 3.06a329.72 329.72 0 0 0-.44 3.245 223.85 223.85 0 0 0-.388 3.126c-.115.99-.207 1.89-.28 2.708a23.457 23.457 0 0 0-.106 1.976c0 .53.068.878.205 1.042.136.165.282.247.44.247a.97.97 0 0 0 .526-.172c.18-.113.367-.306.56-.58.193-.27.387-.632.58-1.084.194-.45.383-1.006.57-1.665l2.384.71c-.13.63-.34 1.343-.634 2.138a9.72 9.72 0 0 1-1.18 2.245zM99.95 28.546a6.693 6.693 0 0 0-1.053-.086c-.83 0-1.59.26-2.278.783-.687.523-1.278 1.3-1.772 2.33-.495 1.032-.88 2.314-1.16 3.847-.28 1.533-.42 3.308-.42 5.328 0 1.203.15 2.148.452 2.836.3.687.71 1.03 1.224 1.03.544 0 1.053-.24 1.526-.72.472-.478.913-1.123 1.32-1.932.41-.81.78-1.747 1.118-2.815.337-1.066.627-2.19.87-3.373.244-1.18.448-2.377.613-3.588.164-1.21.275-2.366.333-3.47a4.674 4.674 0 0 0-.774-.17zM66.275 41.647c.738 1.176 1.67 2.097 2.793 2.763 1.125.667 2.43 1.007 3.92 1.022.875 0 1.777-.1 2.708-.302.93-.202 1.86-.525 2.783-.97a14.32 14.32 0 0 0 2.684-1.705 14.094 14.094 0 0 0 2.417-2.502l1.74 1.74c-1.145 1.49-2.33 2.693-3.554 3.61-1.225.916-2.428 1.63-3.61 2.137-1.18.51-2.324.852-3.427 1.032a18.91 18.91 0 0 1-3.008.268c-2.264 0-4.3-.405-6.113-1.214-1.813-.81-3.34-1.92-4.588-3.33-1.246-1.41-2.18-3.068-2.803-4.973-.624-1.905-.88-3.954-.764-6.145.072-1.332.286-2.667.645-4.007.358-1.338.856-2.62 1.494-3.844a17.98 17.98 0 0 1 2.32-3.427 14.993 14.993 0 0 1 7.08-4.62c1.447-.444 3.022-.666 4.727-.666.572 0 1.178.046 1.815.14.637.093 1.278.232 1.923.418.645.187 1.282.412 1.912.677.63.264 1.232.576 1.805.934h.043l-.065-1.87h3.395l-.537 10.29h-2.878c-.272-2.476-.992-4.36-2.16-5.65-1.167-1.288-2.782-1.94-4.844-1.954-1.533 0-2.89.362-4.07 1.086a9.97 9.97 0 0 0-3.01 2.87c-.823 1.19-1.46 2.545-1.91 4.064-.452 1.52-.72 3.075-.807 4.666-.1 1.907.015 3.666.345 5.28.33 1.612.863 3.006 1.6 4.18zm-36.186 8.23H3.906S0 49.908 0 39.553c0-10.354 3.907-10.326 3.907-10.326h11.4c.016-.696.03-1.28.048-1.908 1.617.258 3.286.634 3.315 1.148l.018.76h11.4s3.908-.028 3.908 10.326c0 10.355-3.907 10.326-3.907 10.326zm-8.427-15.36a4.865 4.865 0 0 0-.822-.686 5.538 5.538 0 0 0-1.004-.528c-.36-.146-.75-.26-1.163-.344a6.832 6.832 0 0 0-1.323-.124c-.954 0-1.842.158-2.637.47a6.09 6.09 0 0 0-2.07 1.327 6.033 6.033 0 0 0-1.35 2.03 6.72 6.72 0 0 0-.48 2.564c0 .903.14 1.753.418 2.526a5.96 5.96 0 0 0 1.214 2.035 5.61 5.61 0 0 0 1.93 1.35c.752.324 1.612.488 2.554.488 1.024 0 1.928-.17 2.687-.505a4.877 4.877 0 0 0 1.926-1.516l.182-.236-1.3-1.367a.895.895 0 0 0-.31-.206.897.897 0 0 0-.7.026c-.102.048-.2.11-.292.187a3.025 3.025 0 0 1-.433.317 2.274 2.274 0 0 1-.94.31 5.687 5.687 0 0 1-.64.035c-.383 0-.745-.076-1.078-.223a2.523 2.523 0 0 1-.876-.647 3.23 3.23 0 0 1-.607-1.075c-.15-.43-.228-.936-.228-1.5 0-.538.076-1.026.227-1.452.15-.42.358-.78.62-1.073a2.66 2.66 0 0 1 .94-.668c.365-.157.778-.236 1.227-.236.262 0 .492.02.682.058.194.04.363.087.503.14.138.055.257.114.355.175.115.07.222.14.318.2.108.07.21.13.308.177.136.067.28.102.433.102.224 0 .41-.057.553-.167.104-.08.196-.17.278-.275l1.102-1.478-.203-.213zm3.11-7.61H9.224s-2.32 0-2.32-6.15 2.32-6.15 2.32-6.15h6.54l.052-1.244c1.22.216 2.38.51 2.38.846l.015-.094.02.49h6.542s2.32 0 2.32 6.15-2.32 6.15-2.32 6.15zm-2.58-13.924H11.918s-1.533.003-1.533-4.06c0-4.065 1.533-4.06 1.533-4.06h4.36c.225-3.056.468-4.874.72-4.874.253 0 .496 1.817.72 4.872h4.477s1.533-.004 1.533 4.06c0 4.064-1.533 4.06-1.533 4.06zm-7.283 44.65c.004-2.414.017-4.803.04-7.418 1.708.233 3.722.637 4.104 1.146.018 2.2.028 4.275.03 6.273h4.643s.774 2.494 0 3.727l-6.497 3.713-6.846-3.713c-.754-1.214 0-3.727 0-3.727h4.526z" class="cls-1"/></symbol></svg>