<svg xmlns="http://www.w3.org/2000/svg" xmlns:xlink="http://www.w3.org/1999/xlink" preserveAspectRatio="xMidYMid" width="30.062" height="30.062" viewBox="0 0 30.062 30.062">
  <defs>
    <style>
      .cls-1 {
        fill: #ef6e7e;
        fill-rule: evenodd;
      }
    </style>
  </defs>
  <path d="M25.655,4.400 C19.786,-1.469 10.268,-1.469 4.399,4.400 C-1.470,10.270 -1.470,19.788 4.399,25.657 C10.268,31.527 19.786,31.527 25.655,25.657 C31.526,19.788 31.526,10.270 25.655,4.400 ZM22.653,18.562 C23.811,16.310 23.852,13.642 22.794,11.354 L25.833,8.313 C28.379,12.413 28.379,17.644 25.833,21.743 L22.653,18.562 ZM11.368,18.784 C9.174,16.591 9.174,13.024 11.368,10.830 C13.560,8.638 17.130,8.638 19.322,10.830 C21.494,13.002 21.512,16.519 19.385,18.717 L19.255,18.846 C17.056,20.974 13.539,20.956 11.368,18.784 ZM21.743,4.222 L18.666,7.297 C16.410,6.299 13.797,6.363 11.590,7.499 L8.313,4.222 C12.411,1.676 17.645,1.676 21.743,4.222 ZM4.221,8.313 L7.701,11.793 C6.898,13.830 6.947,16.120 7.836,18.130 L4.221,21.743 C1.675,17.644 1.675,12.413 4.221,8.313 ZM8.313,25.835 L11.891,22.257 C13.932,23.203 16.277,23.271 18.361,22.451 L21.743,25.835 C17.645,28.381 12.411,28.381 8.313,25.835 Z" class="cls-1"/>
</svg>
