<svg xmlns="http://www.w3.org/2000/svg" xmlns:xlink="http://www.w3.org/1999/xlink" preserveAspectRatio="xMidYMid" width="30" height="30" viewBox="0 0 30 30">
  <defs>
    <style>
      .cls-1 {
        fill: #c5de9e;
        fill-rule: evenodd;
      }
    </style>
  </defs>
  <path d="M-0.000,13.125 L-0.000,16.875 L2.812,16.875 L2.812,15.000 L2.812,13.125 L-0.000,13.125 ZM16.875,-0.000 L13.125,-0.000 L13.125,2.811 L15.000,2.811 L16.875,2.811 L16.875,-0.000 ZM27.188,13.125 L27.188,15.000 L27.188,16.875 L30.000,16.875 L30.000,13.125 L27.188,13.125 ZM15.000,2.811 C8.270,2.811 2.812,8.268 2.812,15.000 C2.812,21.730 8.270,27.186 15.000,27.186 C21.732,27.186 27.188,21.730 27.188,15.000 C27.188,8.268 21.732,2.811 15.000,2.811 ZM15.000,24.375 C9.822,24.375 5.625,20.176 5.625,15.000 C5.625,9.822 9.822,5.625 15.000,5.625 C20.178,5.625 24.375,9.822 24.375,15.000 C24.375,20.176 20.178,24.375 15.000,24.375 ZM13.125,30.000 L16.875,30.000 L16.875,27.186 L15.000,27.186 L13.125,27.186 L13.125,30.000 ZM15.000,8.436 C11.377,8.436 8.437,11.375 8.437,15.000 C8.437,18.623 11.377,21.561 15.000,21.561 C18.625,21.561 21.563,18.623 21.563,15.000 C21.563,11.375 18.625,8.436 15.000,8.436 Z" class="cls-1"/>
</svg>
