<svg xmlns="http://www.w3.org/2000/svg" xmlns:xlink="http://www.w3.org/1999/xlink" preserveAspectRatio="xMidYMid" width="30" height="30" viewBox="0 0 30 30">
  <defs>
    <style>
      .cls-1 {
        fill: #8e8e8e;
        fill-rule: evenodd;
      }
    </style>
  </defs>
  <path d="M29.359,19.403 L29.999,15.769 L26.392,15.134 C26.429,13.677 26.187,12.261 25.710,10.944 L28.829,9.144 L26.984,5.950 L23.902,7.728 C23.214,6.856 22.416,6.070 21.497,5.424 L22.969,2.271 L19.625,0.711 L18.176,3.820 C17.756,3.695 17.329,3.585 16.889,3.508 C16.191,3.385 15.497,3.339 14.815,3.343 L14.225,-0.000 L10.592,0.641 L11.177,3.950 C10.086,4.323 9.062,4.856 8.137,5.527 L5.764,3.155 L3.155,5.764 L5.542,8.150 C4.887,9.063 4.352,10.078 3.981,11.183 L0.640,10.593 L0.000,14.226 L3.378,14.821 C3.372,16.318 3.663,17.768 4.197,19.105 L1.165,20.856 L3.010,24.050 L6.107,22.263 C6.813,23.100 7.624,23.850 8.550,24.463 L7.025,27.729 L10.368,29.290 L11.911,25.980 C12.231,26.066 12.557,26.141 12.887,26.199 C13.641,26.332 14.391,26.383 15.129,26.367 L15.768,30.000 L19.403,29.359 L18.756,25.695 C19.770,25.330 20.728,24.831 21.598,24.206 L24.236,26.844 L26.845,24.235 L24.209,21.600 C24.830,20.740 25.345,19.790 25.714,18.760 L29.359,19.403 ZM20.290,15.806 C19.765,18.790 16.919,20.782 13.935,20.256 C10.951,19.729 8.958,16.885 9.485,13.901 C10.011,10.917 12.856,8.925 15.841,9.451 C18.825,9.977 20.816,12.822 20.290,15.806 Z" class="cls-1"/>
</svg>
