<svg xmlns="http://www.w3.org/2000/svg" xmlns:xlink="http://www.w3.org/1999/xlink" preserveAspectRatio="xMidYMid" width="210.781" height="65.062" viewBox="0 0 210.781 65.062">
  <defs>
    <style>
      .cls-1 {
        fill: #fff;
        fill-rule: evenodd;
      }
    </style>
  </defs>
  <path d="M206.783,30.500 C206.561,32.448 206.375,34.120 206.225,35.517 C206.074,36.913 205.956,38.102 205.870,39.083 C205.784,40.064 205.720,40.877 205.677,41.521 C205.634,42.166 205.612,42.710 205.612,43.154 C205.612,43.684 205.680,44.032 205.816,44.196 C205.952,44.361 206.099,44.443 206.257,44.443 C206.586,44.443 206.930,44.189 207.288,43.681 C207.646,43.172 208.011,42.259 208.384,40.941 L210.769,41.650 C210.582,42.395 210.324,43.172 209.995,43.981 C209.665,44.791 209.232,45.532 208.695,46.205 C208.158,46.878 207.506,47.433 206.740,47.870 C205.974,48.307 205.061,48.525 204.001,48.525 C203.471,48.525 202.966,48.450 202.486,48.300 C202.006,48.149 201.584,47.906 201.219,47.569 C200.854,47.233 200.563,46.792 200.349,46.248 C200.134,45.704 200.026,45.045 200.026,44.271 C200.026,42.939 200.080,41.457 200.188,39.824 C200.295,38.191 200.438,36.473 200.617,34.668 C200.796,32.863 200.997,31.009 201.219,29.103 C201.441,27.199 201.853,23.940 202.454,19.328 L199.360,19.457 L199.532,16.148 C200.549,16.148 201.437,16.105 202.196,16.017 C202.955,15.930 203.604,15.821 204.141,15.690 C204.678,15.559 205.114,15.417 205.451,15.264 C205.788,15.111 206.035,14.962 206.192,14.816 L208.577,14.816 C208.190,18.168 207.850,21.133 207.557,23.711 C207.263,26.289 207.005,28.552 206.783,30.500 ZM185.675,43.251 C186.047,43.717 186.470,44.039 186.942,44.218 C187.415,44.397 187.888,44.486 188.360,44.486 C188.718,44.486 189.145,44.436 189.639,44.336 C190.133,44.236 190.641,44.035 191.164,43.734 C191.687,43.434 192.202,43.004 192.711,42.445 C193.219,41.887 193.674,41.149 194.075,40.232 L196.567,41.435 C195.937,42.882 195.253,44.064 194.516,44.980 C193.778,45.897 193.008,46.617 192.206,47.140 C191.404,47.663 190.580,48.024 189.735,48.225 C188.890,48.425 188.038,48.525 187.179,48.525 C185.832,48.539 184.618,48.353 183.537,47.967 C182.456,47.580 181.532,46.989 180.766,46.194 C179.999,45.399 179.412,44.397 179.004,43.186 C178.596,41.976 178.392,40.555 178.392,38.922 C178.392,37.977 178.485,36.988 178.671,35.957 C178.857,34.926 179.147,33.916 179.541,32.928 C179.935,31.939 180.433,30.998 181.034,30.102 C181.636,29.208 182.348,28.423 183.172,27.750 C183.995,27.077 184.934,26.540 185.986,26.139 C187.039,25.738 188.210,25.537 189.499,25.537 C190.473,25.537 191.364,25.644 192.174,25.859 C192.983,26.074 193.678,26.407 194.258,26.858 C194.838,27.310 195.289,27.886 195.611,28.588 C195.934,29.290 196.095,30.121 196.095,31.080 C196.095,31.882 195.926,32.598 195.590,33.228 C195.253,33.859 194.795,34.417 194.215,34.904 C193.635,35.391 192.961,35.817 192.195,36.183 C191.429,36.548 190.613,36.863 189.746,37.128 C188.879,37.393 187.988,37.615 187.071,37.794 C186.155,37.973 185.267,38.127 184.407,38.256 C184.407,39.502 184.525,40.530 184.762,41.339 C184.998,42.148 185.302,42.786 185.675,43.251 ZM187.576,34.593 C188.400,34.256 189.062,33.873 189.563,33.443 C190.065,33.014 190.426,32.545 190.648,32.036 C190.870,31.528 190.974,31.001 190.960,30.457 C190.946,30.099 190.877,29.795 190.756,29.544 C190.634,29.293 190.480,29.086 190.294,28.921 C190.108,28.756 189.900,28.635 189.671,28.556 C189.442,28.477 189.220,28.437 189.005,28.437 C188.260,28.437 187.626,28.649 187.104,29.071 C186.581,29.494 186.144,30.038 185.793,30.704 C185.442,31.370 185.170,32.119 184.977,32.949 C184.783,33.780 184.644,34.603 184.558,35.420 C185.746,35.205 186.752,34.929 187.576,34.593 ZM174.406,40.125 C173.941,41.228 173.371,42.288 172.698,43.305 C172.025,44.322 171.251,45.217 170.378,45.990 C169.504,46.764 168.541,47.380 167.488,47.838 C166.436,48.296 165.293,48.525 164.062,48.525 C163.059,48.525 162.206,48.368 161.505,48.053 C160.803,47.738 160.227,47.283 159.775,46.688 C159.324,46.094 158.995,45.375 158.787,44.529 C158.579,43.684 158.476,42.732 158.476,41.672 C158.476,41.171 158.493,40.598 158.529,39.953 C158.565,39.309 158.612,38.643 158.669,37.955 C158.726,37.268 158.783,36.573 158.841,35.871 C158.898,35.169 158.955,34.500 159.013,33.862 C159.070,33.225 159.116,32.641 159.152,32.111 C159.188,31.582 159.206,31.137 159.206,30.779 C159.206,30.292 159.127,29.977 158.970,29.834 C158.812,29.691 158.655,29.619 158.497,29.619 C158.167,29.619 157.824,29.874 157.466,30.382 C157.108,30.890 156.742,31.803 156.370,33.121 L153.985,32.412 C154.114,31.782 154.347,31.069 154.684,30.274 C155.020,29.479 155.464,28.731 156.016,28.029 C156.567,27.328 157.229,26.737 158.003,26.257 C158.776,25.777 159.657,25.537 160.646,25.537 C161.490,25.537 162.185,25.673 162.729,25.946 C163.274,26.219 163.707,26.591 164.029,27.064 C164.352,27.537 164.573,28.086 164.695,28.709 C164.817,29.333 164.878,29.989 164.878,30.678 C164.878,31.624 164.835,32.660 164.749,33.785 C164.663,34.911 164.573,36.026 164.480,37.130 C164.387,38.234 164.298,39.277 164.212,40.259 C164.126,41.241 164.083,42.063 164.083,42.722 C164.083,42.966 164.101,43.231 164.137,43.518 C164.172,43.804 164.244,44.077 164.352,44.335 C164.459,44.593 164.616,44.805 164.824,44.969 C165.032,45.135 165.308,45.217 165.651,45.217 C166.181,45.203 166.718,45.059 167.263,44.786 C167.807,44.514 168.337,44.130 168.853,43.635 C169.368,43.140 169.852,42.553 170.303,41.871 C170.754,41.190 171.148,40.433 171.484,39.601 C171.821,38.769 172.086,37.876 172.279,36.922 C172.473,35.969 172.569,34.975 172.569,33.942 C172.569,33.627 172.540,33.301 172.483,32.964 C172.426,32.627 172.347,32.307 172.247,32.006 C172.147,31.705 172.029,31.425 171.893,31.167 C171.756,30.909 171.610,30.701 171.452,30.543 C171.208,30.744 170.918,30.926 170.582,31.091 C170.245,31.256 169.862,31.338 169.433,31.338 C169.146,31.338 168.842,31.288 168.520,31.187 C168.197,31.087 167.904,30.926 167.639,30.704 C167.373,30.482 167.155,30.199 166.983,29.855 C166.812,29.512 166.726,29.103 166.726,28.631 C166.726,28.330 166.783,27.997 166.897,27.632 C167.012,27.267 167.198,26.930 167.456,26.622 C167.714,26.314 168.058,26.056 168.487,25.849 C168.917,25.641 169.447,25.537 170.077,25.537 C171.022,25.537 171.850,25.749 172.559,26.171 C173.268,26.593 173.865,27.170 174.353,27.900 C174.839,28.631 175.205,29.483 175.448,30.457 C175.692,31.431 175.813,32.462 175.813,33.551 C175.813,34.553 175.695,35.624 175.459,36.763 C175.223,37.901 174.872,39.022 174.406,40.125 ZM152.148,46.033 C151.654,46.735 151.053,47.326 150.344,47.806 C149.635,48.285 148.800,48.525 147.841,48.525 C147.368,48.525 146.917,48.464 146.487,48.343 C146.058,48.221 145.682,48.006 145.359,47.698 C145.037,47.390 144.779,46.978 144.586,46.463 C144.393,45.947 144.296,45.303 144.296,44.529 C144.296,44.143 144.310,43.709 144.339,43.229 C144.367,42.750 144.410,42.324 144.468,41.951 L144.425,41.951 C143.880,43.226 143.315,44.286 142.728,45.131 C142.140,45.976 141.528,46.649 140.891,47.150 C140.253,47.652 139.605,48.006 138.946,48.214 C138.287,48.421 137.621,48.525 136.948,48.525 C136.146,48.525 135.391,48.364 134.682,48.042 C133.973,47.720 133.357,47.226 132.834,46.560 C132.311,45.894 131.896,45.056 131.588,44.046 C131.280,43.036 131.126,41.851 131.126,40.490 C131.126,38.485 131.419,36.580 132.007,34.775 C132.594,32.971 133.453,31.385 134.585,30.017 C135.716,28.649 137.106,27.560 138.753,26.751 C140.400,25.942 142.276,25.537 144.382,25.537 C145.212,25.537 146.172,25.620 147.261,25.784 C148.349,25.949 149.502,26.182 150.720,26.482 C150.619,27.213 150.497,28.065 150.354,29.039 C150.211,30.013 150.064,31.034 149.914,32.101 C149.764,33.168 149.617,34.249 149.474,35.345 C149.330,36.440 149.201,37.482 149.087,38.471 C148.972,39.459 148.879,40.361 148.808,41.178 C148.736,41.994 148.700,42.653 148.700,43.154 C148.700,43.684 148.768,44.032 148.904,44.196 C149.040,44.361 149.187,44.443 149.345,44.443 C149.517,44.443 149.692,44.386 149.871,44.271 C150.050,44.157 150.236,43.964 150.430,43.691 C150.623,43.419 150.816,43.058 151.010,42.606 C151.203,42.155 151.393,41.600 151.579,40.941 L153.964,41.650 C153.835,42.281 153.623,42.993 153.330,43.788 C153.036,44.583 152.643,45.332 152.148,46.033 ZM143.802,28.545 C143.444,28.488 143.093,28.459 142.749,28.459 C141.918,28.459 141.159,28.720 140.472,29.243 C139.784,29.766 139.193,30.543 138.699,31.574 C138.205,32.605 137.818,33.887 137.539,35.420 C137.260,36.953 137.120,38.728 137.120,40.748 C137.120,41.951 137.271,42.896 137.571,43.584 C137.872,44.271 138.280,44.615 138.796,44.615 C139.340,44.615 139.849,44.375 140.321,43.895 C140.794,43.416 141.234,42.771 141.643,41.962 C142.051,41.153 142.423,40.215 142.760,39.147 C143.096,38.081 143.386,36.956 143.630,35.774 C143.873,34.593 144.077,33.397 144.242,32.186 C144.407,30.976 144.518,29.820 144.575,28.717 C144.417,28.660 144.160,28.602 143.802,28.545 ZM129.987,30.962 C129.729,31.241 129.418,31.467 129.053,31.639 C128.688,31.810 128.283,31.896 127.839,31.896 C127.509,31.896 127.198,31.843 126.904,31.737 C126.611,31.631 126.353,31.478 126.131,31.279 C125.909,31.081 125.733,30.843 125.604,30.566 C125.476,30.290 125.418,29.974 125.433,29.619 C125.017,29.576 124.595,29.777 124.165,30.220 C123.735,30.664 123.320,31.275 122.919,32.055 C122.518,32.834 122.138,33.746 121.780,34.791 C121.422,35.835 121.111,36.930 120.846,38.074 C120.581,39.219 120.373,40.374 120.223,41.540 C120.072,42.706 119.997,43.811 119.997,44.855 C119.997,45.056 120.000,45.302 120.008,45.596 C120.015,45.889 120.026,46.186 120.040,46.486 C120.054,46.787 120.069,47.076 120.083,47.355 C120.097,47.634 120.112,47.860 120.126,48.031 L114.368,48.031 C114.339,47.730 114.314,47.476 114.293,47.269 C114.271,47.061 114.257,46.882 114.250,46.731 C114.243,46.581 114.239,46.445 114.239,46.323 C114.239,46.202 114.239,46.069 114.239,45.926 C114.239,45.296 114.279,44.533 114.357,43.638 C114.436,42.743 114.533,41.794 114.647,40.791 C114.762,39.789 114.891,38.771 115.034,37.740 C115.177,36.709 115.306,35.735 115.421,34.818 C115.535,33.902 115.632,33.089 115.711,32.380 C115.789,31.671 115.829,31.137 115.829,30.779 C115.829,30.292 115.765,29.977 115.636,29.834 C115.507,29.691 115.363,29.619 115.206,29.619 C114.876,29.619 114.533,29.874 114.175,30.382 C113.817,30.890 113.451,31.803 113.079,33.121 L110.694,32.412 C110.823,31.782 111.020,31.069 111.285,30.274 C111.550,29.479 111.915,28.731 112.381,28.029 C112.846,27.328 113.423,26.737 114.110,26.257 C114.798,25.777 115.621,25.537 116.581,25.537 C117.054,25.537 117.512,25.598 117.956,25.720 C118.400,25.842 118.790,26.056 119.127,26.364 C119.463,26.672 119.736,27.084 119.943,27.600 C120.151,28.115 120.255,28.760 120.255,29.533 C120.255,30.006 120.223,30.572 120.158,31.230 C120.094,31.889 119.990,32.634 119.847,33.465 L119.890,33.465 C120.477,31.789 121.078,30.435 121.694,29.404 C122.310,28.373 122.930,27.571 123.553,26.998 C124.176,26.425 124.788,26.039 125.390,25.838 C125.991,25.637 126.564,25.537 127.108,25.537 C127.653,25.537 128.150,25.616 128.602,25.773 C129.053,25.931 129.439,26.157 129.762,26.450 C130.084,26.744 130.334,27.098 130.514,27.514 C130.693,27.929 130.782,28.394 130.782,28.910 C130.782,29.283 130.714,29.648 130.578,30.006 C130.442,30.364 130.245,30.683 129.987,30.962 ZM108.299,46.033 C107.805,46.735 107.203,47.326 106.494,47.806 C105.785,48.285 104.951,48.525 103.991,48.525 C103.519,48.525 103.067,48.464 102.638,48.343 C102.208,48.221 101.832,48.006 101.510,47.698 C101.187,47.390 100.930,46.978 100.736,46.463 C100.543,45.947 100.446,45.303 100.446,44.529 C100.446,44.143 100.460,43.709 100.489,43.229 C100.518,42.750 100.561,42.324 100.618,41.951 L100.575,41.951 C100.031,43.226 99.465,44.286 98.878,45.131 C98.290,45.976 97.678,46.649 97.041,47.150 C96.404,47.652 95.755,48.006 95.097,48.214 C94.438,48.421 93.772,48.525 93.099,48.525 C92.296,48.525 91.541,48.364 90.832,48.042 C90.123,47.720 89.507,47.226 88.984,46.560 C88.461,45.894 88.046,45.056 87.738,44.046 C87.430,43.036 87.276,41.851 87.276,40.490 C87.276,38.485 87.570,36.580 88.157,34.775 C88.744,32.971 89.604,31.385 90.735,30.017 C91.867,28.649 93.256,27.560 94.903,26.751 C96.550,25.942 98.427,25.537 100.532,25.537 C101.363,25.537 102.322,25.620 103.411,25.784 C104.499,25.949 105.653,26.182 106.870,26.482 C106.770,27.213 106.648,28.065 106.505,29.039 C106.362,30.013 106.215,31.034 106.064,32.101 C105.914,33.168 105.767,34.249 105.624,35.345 C105.481,36.440 105.352,37.482 105.237,38.471 C105.122,39.459 105.030,40.361 104.958,41.178 C104.886,41.994 104.851,42.653 104.851,43.154 C104.851,43.684 104.918,44.032 105.055,44.196 C105.191,44.361 105.337,44.443 105.495,44.443 C105.667,44.443 105.842,44.386 106.021,44.271 C106.200,44.157 106.387,43.964 106.580,43.691 C106.773,43.419 106.967,43.058 107.160,42.606 C107.354,42.155 107.543,41.600 107.729,40.941 L110.114,41.650 C109.985,42.281 109.774,42.993 109.480,43.788 C109.187,44.583 108.793,45.332 108.299,46.033 ZM99.952,28.545 C99.594,28.488 99.243,28.459 98.899,28.459 C98.069,28.459 97.310,28.720 96.622,29.243 C95.935,29.766 95.344,30.543 94.850,31.574 C94.355,32.605 93.969,33.887 93.689,35.420 C93.410,36.953 93.271,38.728 93.271,40.748 C93.271,41.951 93.421,42.896 93.722,43.584 C94.022,44.271 94.431,44.615 94.946,44.615 C95.490,44.615 95.999,44.375 96.472,43.895 C96.944,43.416 97.385,42.771 97.793,41.962 C98.201,41.153 98.573,40.215 98.910,39.147 C99.247,38.081 99.537,36.956 99.780,35.774 C100.024,34.593 100.228,33.397 100.393,32.186 C100.557,30.976 100.668,29.820 100.726,28.717 C100.568,28.660 100.310,28.602 99.952,28.545 ZM66.275,41.647 C67.013,42.823 67.944,43.744 69.068,44.410 C70.193,45.077 71.499,45.417 72.989,45.432 C73.863,45.432 74.765,45.331 75.696,45.130 C76.627,44.928 77.555,44.605 78.479,44.159 C79.402,43.713 80.297,43.145 81.164,42.455 C82.030,41.765 82.836,40.931 83.581,39.953 L85.321,41.693 C84.175,43.183 82.990,44.386 81.766,45.303 C80.541,46.219 79.338,46.932 78.156,47.440 C76.975,47.949 75.832,48.292 74.729,48.472 C73.626,48.651 72.624,48.740 71.722,48.740 C69.458,48.740 67.421,48.335 65.609,47.526 C63.797,46.717 62.269,45.607 61.022,44.196 C59.776,42.786 58.842,41.128 58.219,39.223 C57.596,37.318 57.341,35.269 57.456,33.078 C57.528,31.746 57.742,30.411 58.101,29.071 C58.458,27.732 58.956,26.450 59.594,25.226 C60.231,24.001 61.004,22.859 61.914,21.799 C62.823,20.739 63.869,19.815 65.051,19.027 C66.232,18.240 67.546,17.624 68.993,17.180 C70.440,16.736 72.015,16.514 73.720,16.514 C74.292,16.514 74.898,16.560 75.535,16.653 C76.172,16.747 76.813,16.886 77.458,17.072 C78.103,17.259 78.740,17.484 79.370,17.749 C80.000,18.014 80.602,18.326 81.175,18.684 L81.218,18.684 L81.153,16.814 L84.548,16.814 L84.011,27.105 L81.132,27.105 C80.860,24.628 80.140,22.744 78.973,21.455 C77.805,20.166 76.190,19.514 74.128,19.500 C72.595,19.500 71.238,19.862 70.057,20.586 C68.875,21.310 67.872,22.267 67.049,23.456 C66.225,24.646 65.588,26.001 65.137,27.520 C64.686,29.040 64.417,30.595 64.331,32.186 C64.231,34.093 64.345,35.852 64.675,37.465 C65.004,39.078 65.538,40.472 66.275,41.647 ZM30.089,49.878 L19.042,49.878 L14.953,49.878 L3.907,49.878 C3.907,49.878 -0.001,49.907 -0.001,39.552 C-0.001,29.198 3.907,29.226 3.907,29.226 L15.307,29.226 C15.323,28.530 15.338,27.946 15.355,27.318 C16.972,27.576 18.641,27.952 18.670,28.466 C18.676,28.709 18.682,28.994 18.688,29.226 L30.089,29.226 C30.089,29.226 33.996,29.198 33.996,39.552 C33.996,49.907 30.089,49.878 30.089,49.878 ZM21.663,34.517 C21.425,34.267 21.148,34.036 20.841,33.831 C20.535,33.626 20.197,33.448 19.836,33.302 C19.477,33.156 19.086,33.041 18.673,32.958 C18.259,32.876 17.814,32.834 17.350,32.834 C16.396,32.834 15.508,32.992 14.713,33.305 C13.915,33.618 13.218,34.064 12.643,34.631 C12.067,35.198 11.613,35.881 11.294,36.660 C10.975,37.437 10.813,38.300 10.813,39.224 C10.813,40.127 10.954,40.977 11.231,41.750 C11.511,42.529 11.919,43.214 12.444,43.785 C12.971,44.357 13.620,44.812 14.374,45.136 C15.126,45.459 15.986,45.623 16.928,45.623 C17.952,45.623 18.856,45.453 19.615,45.118 C20.383,44.779 21.031,44.269 21.541,43.602 L21.722,43.366 L20.423,41.999 C20.328,41.905 20.223,41.836 20.112,41.794 L20.112,41.794 C19.879,41.707 19.632,41.718 19.413,41.820 C19.310,41.868 19.213,41.929 19.120,42.007 C18.974,42.134 18.828,42.240 18.687,42.324 C18.549,42.406 18.402,42.474 18.250,42.525 C18.098,42.576 17.929,42.613 17.748,42.635 C17.556,42.657 17.340,42.669 17.106,42.669 C16.724,42.669 16.362,42.594 16.029,42.447 C15.698,42.301 15.404,42.083 15.154,41.800 C14.901,41.513 14.697,41.152 14.547,40.725 C14.396,40.294 14.319,39.789 14.319,39.224 C14.319,38.687 14.396,38.199 14.547,37.773 C14.696,37.353 14.905,36.992 15.168,36.700 C15.428,36.412 15.743,36.187 16.106,36.032 C16.472,35.875 16.885,35.796 17.334,35.796 C17.596,35.796 17.826,35.815 18.016,35.854 C18.210,35.893 18.379,35.941 18.519,35.995 C18.658,36.049 18.777,36.108 18.875,36.169 C18.990,36.241 19.097,36.309 19.193,36.370 C19.301,36.439 19.404,36.499 19.501,36.547 C19.636,36.614 19.781,36.649 19.933,36.649 C20.157,36.649 20.343,36.593 20.486,36.483 C20.590,36.404 20.682,36.314 20.764,36.208 L21.866,34.730 L21.663,34.517 ZM24.772,26.906 L18.631,26.906 L15.364,26.906 L9.223,26.906 C9.223,26.906 6.903,26.906 6.903,20.757 C6.903,14.607 9.223,14.607 9.223,14.607 L15.765,14.607 C15.781,14.187 15.799,13.771 15.816,13.363 C17.035,13.579 18.196,13.872 18.196,14.209 L18.211,14.116 C18.217,14.277 18.224,14.445 18.230,14.607 L24.772,14.607 C24.772,14.607 27.092,14.607 27.092,20.757 C27.092,26.906 24.772,26.906 24.772,26.906 ZM22.194,12.983 L11.917,12.983 C11.917,12.983 10.384,12.986 10.384,8.922 C10.384,4.858 11.917,4.862 11.917,4.862 L16.278,4.862 C16.502,1.807 16.745,-0.011 16.998,-0.011 C17.250,-0.011 17.493,1.807 17.717,4.862 L22.194,4.862 C22.194,4.862 23.727,4.858 23.727,8.922 C23.727,12.986 22.194,12.983 22.194,12.983 ZM14.910,57.633 C14.914,55.219 14.927,52.830 14.951,50.215 C16.658,50.448 18.672,50.852 19.054,51.361 C19.072,53.559 19.082,55.635 19.085,57.633 L23.727,57.633 C23.727,57.633 24.501,60.127 23.727,61.360 L17.230,65.073 L10.384,61.360 C9.630,60.146 10.384,57.633 10.384,57.633 L14.910,57.633 Z" class="cls-1"/>
</svg>
