<svg xmlns="http://www.w3.org/2000/svg" xmlns:xlink="http://www.w3.org/1999/xlink" preserveAspectRatio="xMidYMid" width="107.156" height="24.219" viewBox="0 0 107.156 24.219">
  <defs>
    <style>
      .cls-1 {
        fill: #fff;
        fill-opacity: 0.5;
        fill-rule: evenodd;
      }
    </style>
  </defs>
  <path d="M100.444,6.545 C99.061,6.545 98.018,6.762 97.315,7.195 C96.612,7.629 96.260,8.227 96.260,8.988 C96.260,9.504 96.392,9.944 96.656,10.307 C96.919,10.670 97.344,11.016 97.930,11.344 C98.516,11.672 99.641,12.147 101.305,12.768 C103.590,13.600 105.134,14.438 105.937,15.281 C106.740,16.125 107.141,17.186 107.141,18.463 C107.141,20.256 106.473,21.639 105.137,22.611 C103.801,23.584 101.926,24.070 99.512,24.070 C96.957,24.070 94.965,23.666 93.536,22.857 L93.536,20.150 C94.461,20.619 95.454,20.988 96.515,21.258 C97.576,21.528 98.598,21.662 99.583,21.662 C101.106,21.662 102.278,21.419 103.098,20.933 C103.918,20.447 104.329,19.705 104.329,18.709 C104.329,17.959 104.003,17.318 103.353,16.784 C102.703,16.251 101.434,15.621 99.547,14.895 C97.754,14.227 96.480,13.644 95.724,13.146 C94.968,12.648 94.406,12.082 94.037,11.449 C93.667,10.816 93.483,10.061 93.483,9.182 C93.483,7.611 94.121,6.372 95.399,5.464 C96.676,4.556 98.428,4.102 100.655,4.102 C102.729,4.102 104.756,4.523 106.737,5.367 L105.700,7.740 C103.766,6.944 102.014,6.545 100.444,6.545 ZM85.696,21.135 L85.538,21.135 C84.940,22.084 84.111,22.811 83.050,23.315 C81.990,23.818 80.780,24.070 79.420,24.070 C77.076,24.070 75.322,23.514 74.156,22.400 C72.990,21.287 72.407,19.506 72.407,17.057 L72.407,4.453 L75.360,4.453 L75.360,16.951 C75.360,18.522 75.717,19.693 76.432,20.467 C77.147,21.240 78.266,21.627 79.790,21.627 C81.805,21.627 83.279,21.076 84.210,19.975 C85.142,18.873 85.608,17.074 85.608,14.578 L85.608,4.453 L88.526,4.453 L88.526,23.719 L86.118,23.719 L85.696,21.135 ZM67.371,23.921 C66.755,24.020 66.202,24.070 65.709,24.070 C61.983,24.070 60.120,22.108 60.120,18.182 L60.120,6.721 L57.360,6.721 L57.360,5.315 L60.120,4.102 L61.350,-0.012 L63.038,-0.012 L63.038,4.453 L68.627,4.453 L68.627,6.721 L63.038,6.721 L63.038,18.059 C63.038,19.219 63.313,20.110 63.864,20.731 C64.414,21.352 65.170,21.662 66.131,21.662 C66.647,21.662 67.145,21.624 67.625,21.548 C68.106,21.472 68.487,21.393 68.768,21.311 L68.768,23.543 C68.452,23.695 67.986,23.821 67.371,23.921 ZM51.155,20.977 L51.014,20.977 C50.053,22.184 49.095,23.001 48.140,23.429 C47.185,23.856 45.993,24.070 44.563,24.070 C42.653,24.070 41.156,23.578 40.072,22.594 C38.988,21.609 38.446,20.209 38.446,18.393 C38.446,14.502 41.557,12.463 47.780,12.275 L51.049,12.170 L51.049,10.975 C51.049,9.463 50.724,8.347 50.074,7.626 C49.423,6.905 48.383,6.545 46.954,6.545 C45.348,6.545 43.532,7.037 41.504,8.022 L40.608,5.789 C41.557,5.274 42.597,4.869 43.728,4.576 C44.859,4.283 45.993,4.137 47.129,4.137 C49.426,4.137 51.128,4.647 52.236,5.666 C53.343,6.686 53.897,8.320 53.897,10.570 L53.897,23.719 L51.735,23.719 L51.155,20.977 ZM50.979,14.244 L48.061,14.367 C45.741,14.449 44.068,14.810 43.042,15.448 C42.017,16.087 41.504,17.080 41.504,18.428 C41.504,19.482 41.824,20.285 42.462,20.836 C43.101,21.387 43.994,21.662 45.143,21.662 C46.959,21.662 48.386,21.164 49.423,20.168 C50.460,19.172 50.979,17.777 50.979,15.984 L50.979,14.244 ZM34.640,23.921 C34.025,24.020 33.471,24.070 32.979,24.070 C29.252,24.070 27.389,22.108 27.389,18.182 L27.389,6.721 L24.629,6.721 L24.629,5.315 L27.389,4.102 L28.620,-0.012 L30.307,-0.012 L30.307,4.453 L35.897,4.453 L35.897,6.721 L30.307,6.721 L30.307,18.059 C30.307,19.219 30.582,20.110 31.133,20.731 C31.684,21.352 32.440,21.662 33.401,21.662 C33.916,21.662 34.414,21.624 34.895,21.548 C35.375,21.472 35.756,21.393 36.038,21.311 L36.038,23.543 C35.721,23.695 35.255,23.821 34.640,23.921 ZM13.221,11.344 C13.807,11.672 14.932,12.147 16.596,12.768 C18.881,13.600 20.425,14.438 21.228,15.281 C22.031,16.125 22.432,17.186 22.432,18.463 C22.432,20.256 21.764,21.639 20.428,22.611 C19.092,23.584 17.217,24.070 14.803,24.070 C12.248,24.070 10.256,23.666 8.827,22.857 L8.827,20.150 C9.752,20.619 10.745,20.988 11.806,21.258 C12.867,21.528 13.889,21.662 14.874,21.662 C16.397,21.662 17.569,21.419 18.389,20.933 C19.209,20.447 19.620,19.705 19.620,18.709 C19.620,17.959 19.294,17.318 18.644,16.784 C17.994,16.251 16.725,15.621 14.838,14.895 C13.045,14.227 11.771,13.644 11.015,13.146 C10.259,12.648 9.697,12.082 9.328,11.449 C8.958,10.816 8.774,10.061 8.774,9.182 C8.774,7.611 9.412,6.372 10.690,5.464 C11.967,4.556 13.719,4.102 15.946,4.102 C18.020,4.102 20.047,4.523 22.028,5.367 L20.991,7.740 C19.057,6.944 17.305,6.545 15.735,6.545 C14.352,6.545 13.309,6.762 12.606,7.195 C11.903,7.629 11.551,8.227 11.551,8.988 C11.551,9.504 11.683,9.944 11.947,10.307 C12.210,10.670 12.635,11.016 13.221,11.344 ZM2.077,24.229 C1.479,24.229 0.984,24.044 0.591,23.675 C0.199,23.306 0.002,22.699 0.002,21.856 C0.002,21.071 0.181,20.476 0.539,20.071 C0.896,19.667 1.409,19.465 2.077,19.465 C2.756,19.465 3.287,19.667 3.667,20.071 C4.048,20.476 4.239,21.071 4.239,21.856 C4.239,22.617 4.045,23.203 3.659,23.613 C3.272,24.023 2.745,24.229 2.077,24.229 ZM2.077,8.707 C1.479,8.707 0.984,8.523 0.591,8.153 C0.199,7.784 0.002,7.178 0.002,6.334 C0.002,4.752 0.694,3.961 2.077,3.961 C3.518,3.961 4.239,4.752 4.239,6.334 C4.239,7.096 4.045,7.682 3.659,8.092 C3.272,8.502 2.745,8.707 2.077,8.707 Z" class="cls-1"/>
</svg>
